<?xml version="1.0" ?><svg id="Layer_1" style="enable-background:new 0 0 512 512;" version="1.1" viewBox="0 0 512 512" xml:space="preserve" xmlns="http://www.w3.org/2000/svg" xmlns:xlink="http://www.w3.org/1999/xlink"><style type="text/css">
	.st0{fill:#F9AC82;}
	.st1{fill:#F8BC95;}
	.st2{fill:#0083BF;}
	.st3{fill:#0095DA;}
	.st4{fill:#EE3544;}
	.st5{fill:#F15C5C;}
	.st6{fill:#1A3F6F;}
</style><g transform="rotate(180) translate(-400 -500)"><polygon class="st0" points="183.5,282.2 249.8,440.8 249.5,440.8 315.6,282.2  "/><path class="st1" d="M247.7,394c-2.4,0-4.6-1.4-5.5-3.7l-36.2-87c-1.3-3.1,0.2-6.6,3.2-7.8c3.1-1.3,6.6,0.2,7.8,3.2l36.2,87   c1.3,3.1-0.2,6.6-3.2,7.8C249.2,393.9,248.4,394,247.7,394z"/><path class="st2" d="M335.6,227.2c-2.4,0-4.6,0.5-6.7,1.4c5.3-11.3,8.2-23.8,8.2-37.1c0-48.4-39.2-87.6-87.6-87.6   c-48.4,0-87.6,39.2-87.6,87.6c0,13.3,3,25.9,8.2,37.1c-2.1-0.9-4.3-1.4-6.7-1.4c-9.3,0-16.9,7.6-16.9,16.9s7.6,16.9,16.9,16.9   c3.3,0,6.4-1,9-2.6c-1.7,2.6-2.6,5.7-2.6,9c0,9.3,7.6,16.9,16.9,16.9c5.7,0,10.8-2.9,13.9-7.2c-0.1,0.6-0.1,1.3-0.1,1.9   c0,9.3,7.6,16.9,16.9,16.9c6.8,0,12.6-4,15.3-9.7c-0.1,0.6-0.1,1.2-0.1,1.8c0,9.3,7.6,16.9,16.9,16.9c9.3,0,16.9-7.6,16.9-16.9   c0-0.6,0-1.2-0.1-1.8c2.7,5.7,8.5,9.7,15.3,9.7c9.3,0,16.9-7.6,16.9-16.9c0-0.6,0-1.3-0.1-1.9c3.1,4.4,8.1,7.2,13.9,7.2   c9.3,0,16.9-7.6,16.9-16.9c0-3.3-1-6.4-2.6-9c2.6,1.6,5.7,2.6,9,2.6c9.3,0,16.9-7.6,16.9-16.9S344.9,227.2,335.6,227.2z"/><path class="st3" d="M181.6,207.7c-2.9,0-5.4-2.1-5.9-5c-3.2-19.5,1.4-39,13-55c11.5-16,28.6-26.6,48-29.7c3.3-0.5,6.4,1.7,6.9,5   c0.5,3.3-1.7,6.4-5,6.9c-16.3,2.7-30.6,11.5-40.2,24.9c-9.6,13.4-13.5,29.8-10.8,46.1c0.5,3.3-1.7,6.4-5,6.9   C182.2,207.6,181.9,207.7,181.6,207.7z"/><circle class="st4" cx="282.8" cy="115.5" r="30"/><path class="st5" d="M295.7,121c-0.3,0-0.5,0-0.8-0.1c-3.3-0.4-5.6-3.4-5.2-6.7c0.5-3.7-3.4-5.1-4.6-5.4c-3.2-0.9-5.1-4.1-4.2-7.3   c0.8-3.2,4.2-5.1,7.4-4.3c0.6,0.2,3.9,1.1,7,3.6c4.8,3.7,7.1,9.1,6.3,15C301.3,118.8,298.7,121,295.7,121z"/><path class="st6" d="M338.2,221.3c3.2-9.6,4.9-19.6,4.9-29.9c0-25.1-10-48-26.1-64.8c1.1-3.5,1.8-7.2,1.8-11.1   c0-11.9-5.9-22.5-14.8-29.1c2.2-3.3,6.2-7.6,13.2-9.4c3.2-0.8,5.1-4.1,4.3-7.3c-0.8-3.2-4.1-5.1-7.3-4.3   c-11.4,3-17.7,10.3-20.9,15.7c-3.3-1-6.8-1.5-10.4-1.5c-13.4,0-25.2,7.4-31.3,18.4c-0.6,0-1.3,0-1.9,0c-51.6,0-93.6,42-93.6,93.6   c0,10.3,1.6,20.3,4.9,29.9c-11.4,1.3-20.2,11-20.2,22.8c0,12.6,10.3,22.9,22.9,22.9c0.1,0,0.2,0,0.4,0c0,0.1,0,0.3,0,0.4   c0,10.3,6.8,19,16.1,21.9l63.6,152.2c0.1,0.9,0.4,1.8,1,2.6c1.1,1.7,3,2.7,5,2.7h0.3c2,0,3.9-1,5-2.7c0.5-0.8,0.9-1.7,1-2.6   l63.4-152.2c9.3-2.9,16.1-11.6,16.1-21.9c0-0.1,0-0.3,0-0.4c0.1,0,0.2,0,0.4,0c12.6,0,22.9-10.3,22.9-22.9   C358.5,232.4,349.6,222.7,338.2,221.3z M282.8,91.6c3.4,0,6.6,0.7,9.5,2c0.6,0.5,1.2,0.8,2,1.1c0.1,0,0.2,0,0.3,0.1   c7.3,4.1,12.2,11.9,12.2,20.9c0,13.2-10.8,24-24,24s-24-10.8-24-24S269.6,91.6,282.8,91.6z M249.6,424.9l-56.6-135.4   c1.2-0.3,2.3-0.8,3.4-1.3c3.5,8.1,11.6,13.7,21,13.7c4.2,0,8.3-1.2,11.8-3.3c3.8,7.3,11.5,12.3,20.3,12.3c8.8,0,16.5-5,20.3-12.3   c3.5,2.1,7.6,3.3,11.8,3.3c9.4,0,17.4-5.6,21-13.7c1.1,0.5,2.2,0.9,3.4,1.3L249.6,424.9z M335.6,255c-2,0-4-0.6-5.8-1.7   c-2.4-1.5-5.5-1.1-7.4,0.8c-2,2-2.3,5.1-0.8,7.4c1.1,1.8,1.7,3.8,1.7,5.8c0,6-4.9,10.9-10.9,10.9c-3.5,0-6.9-1.7-8.9-4.7   c-1.6-2.2-4.5-3.1-7-2.2s-4.1,3.6-3.8,6.3c0.1,0.5,0.1,0.9,0.1,1.2c0,6-4.9,10.9-10.9,10.9c-4.2,0-8.1-2.5-9.9-6.3   c-1.2-2.6-4.2-4-7-3.2c-2.8,0.8-4.7,3.5-4.3,6.4c0,0.4,0.1,0.8,0.1,1.1c0,6-4.9,10.9-10.9,10.9s-10.9-4.9-10.9-10.9   c0-0.4,0-0.8,0.1-1.2c0.3-2.9-1.5-5.6-4.4-6.4c-0.5-0.2-1.1-0.2-1.6-0.2c-2.3,0-4.4,1.3-5.4,3.4c-1.8,3.8-5.7,6.3-9.9,6.3   c-6,0-10.9-4.9-10.9-10.9c0-0.4,0-0.8,0.1-1.2c0.3-2.7-1.3-5.3-3.8-6.3c-2.6-1-5.5-0.1-7,2.2c-2,2.9-5.4,4.7-8.9,4.7   c-6,0-10.9-4.9-10.9-10.9c0-2,0.6-4.1,1.7-5.8c1.5-2.4,1.2-5.5-0.8-7.4c-2-2-5.1-2.3-7.4-0.8c-1.7,1.1-3.7,1.7-5.8,1.7   c-6,0-10.9-4.9-10.9-10.9c0-6,4.9-10.9,10.9-10.9c1.5,0,2.9,0.3,4.3,0.9c2.3,1,4.9,0.5,6.7-1.3c1.7-1.8,2.2-4.5,1.1-6.7   c-5.1-10.9-7.7-22.5-7.7-34.6c0-44.2,35.4-80.3,79.3-81.5c-0.3,1.8-0.4,3.7-0.4,5.6c0,19.8,16.1,36,36,36   c11.4,0,21.6-5.3,28.2-13.6c12.5,14.3,20.2,33.1,20.2,53.6c0,12.1-2.6,23.7-7.7,34.6c-1.1,2.3-0.6,4.9,1.1,6.7s4.4,2.3,6.7,1.3   c1.4-0.6,2.8-0.9,4.3-0.9c6,0,10.9,4.9,10.9,10.9C346.5,250.1,341.6,255,335.6,255z"/></g></svg>